<?xml version="1.0" encoding="UTF-8" standalone="no"?>
<!-- Created with Inkscape (http://www.inkscape.org/) -->

<svg
   width="288"
   height="288"
   viewBox="0 0 76.199999 76.199999"
   version="1.1"
   id="svg1"
   xml:space="preserve"
   inkscape:version="1.4-beta2 (9aaf4f34, 2024-07-30)"
   sodipodi:docname="tamarin-logo-vector.svg"
   inkscape:export-filename="tamarin-logo-vector.pdf"
   inkscape:export-xdpi="96"
   inkscape:export-ydpi="96"
   xmlns:inkscape="http://www.inkscape.org/namespaces/inkscape"
   xmlns:sodipodi="http://sodipodi.sourceforge.net/DTD/sodipodi-0.dtd"
   xmlns="http://www.w3.org/2000/svg"
   xmlns:svg="http://www.w3.org/2000/svg"
   xmlns:rdf="http://www.w3.org/1999/02/22-rdf-syntax-ns#"
   xmlns:cc="http://creativecommons.org/ns#"
   xmlns:dc="http://purl.org/dc/elements/1.1/"><title
     id="title99">Tamarin logo - vector graphics</title><sodipodi:namedview
     id="namedview1"
     pagecolor="#ffffff"
     bordercolor="#000000"
     borderopacity="0.25"
     inkscape:showpageshadow="2"
     inkscape:pageopacity="0.0"
     inkscape:pagecheckerboard="0"
     inkscape:deskcolor="#d1d1d1"
     inkscape:document-units="mm"
     inkscape:zoom="1.2929456"
     inkscape:cx="255.23116"
     inkscape:cy="232.02832"
     inkscape:window-width="1920"
     inkscape:window-height="1027"
     inkscape:window-x="1920"
     inkscape:window-y="25"
     inkscape:window-maximized="0"
     inkscape:current-layer="layer6"
     showgrid="true"><inkscape:grid
       id="grid1"
       units="px"
       originx="0"
       originy="0"
       spacingx="2.1166668"
       spacingy="2.1166667"
       empcolor="#0099e5"
       empopacity="0.30196078"
       color="#0099e5"
       opacity="0.14901961"
       empspacing="4"
       enabled="true"
       visible="true" /></sodipodi:namedview><defs
     id="defs1" /><g
     inkscape:groupmode="layer"
     id="layer6"
     inkscape:label="Tamarin logo"
     style="display:inline"><g
       inkscape:groupmode="layer"
       id="layer2"
       inkscape:label="colors"
       style="opacity:1"><rect
         style="display:inline;fill:#6abe30;fill-opacity:1;stroke:none;stroke-width:0.176389;stroke-linecap:square;stroke-miterlimit:9.9;paint-order:fill markers stroke"
         id="rect1"
         width="67.733337"
         height="67.733337"
         x="4.2333336"
         y="4.2333336"
         inkscape:label="background green" /><path
         id="rect6"
         style="display:inline;fill:#000000;fill-opacity:1;stroke:none;stroke-width:0.176389;stroke-linecap:square;stroke-miterlimit:9.9;paint-order:fill markers stroke"
         d="M 8.4666667,8.4666667 V 25.4 H 12.7 V 38.1 H 8.4666667 v 4.233333 H 4.2333333 v 29.633334 h 12.6999997 44.45 H 63.5 67.733333 71.966667 V 42.333333 H 67.733333 V 38.1 H 63.5 V 25.4 h 4.233333 V 8.4666667 h -12.7 V 12.7 H 21.166667 V 8.4666667 Z"
         inkscape:label="black" /><path
         id="rect13"
         style="display:inline;fill:#2f2f2f;fill-opacity:1;stroke:none;stroke-width:0.176389;stroke-linecap:square;stroke-miterlimit:9.9;paint-order:fill markers stroke"
         d="m 12.7,12.7 v 12.7 h 4.233333 v 4.233333 h 4.233334 v 4.233334 H 25.4 V 29.633333 25.4 H 21.166667 V 12.7 Z M 25.4,25.4 H 38.1 V 21.166667 H 25.4 Z m -4.233333,8.466667 H 16.933333 V 38.1 h 4.233334 z M 55.033333,12.7 v 8.466667 h -12.7 V 25.4 h 12.7 v 8.466667 h 4.233334 V 25.4 H 63.5 V 21.166667 12.7 Z m -38.1,42.333333 v 12.7 h 4.233334 v 4.233334 h 33.866666 v -4.233334 h 4.233334 v -12.7 h -4.233334 v 4.233334 H 21.166667 v -4.233334 z m -12.6999997,12.7 v 4.233334 h 4.2333334 v -4.233334 z m 63.4999997,0 v 4.233334 h 4.233334 v -4.233334 z"
         inkscape:label="dark grey" /><path
         id="rect25"
         style="display:inline;fill:#5a5a5a;fill-opacity:1;stroke:none;stroke-width:0.176389;stroke-linecap:square;stroke-miterlimit:9.9;paint-order:fill markers stroke"
         d="m 33.866667,16.933333 v 4.233334 H 38.1 V 16.933333 Z M 38.1,21.166667 V 25.4 h 4.233333 v -4.233333 z m 4.233333,0 h 4.233334 v -4.233334 h -4.233334 z m -21.166666,0 V 25.4 H 25.4 v -4.233333 z m 0,12.7 V 38.1 H 25.4 v -4.233333 z m 33.866666,0 V 38.1 h 4.233334 V 33.866667 Z M 59.266667,38.1 v 4.233333 H 63.5 V 38.1 Z M 63.5,42.333333 v 4.233334 h 4.233333 V 42.333333 Z M 12.7,38.1 v 4.233333 h 4.233333 V 38.1 Z m 0,4.233333 H 8.4666667 v 4.233334 H 12.7 Z M 21.166667,50.8 v 4.233333 H 25.4 V 50.8 Z M 50.8,50.8 v 4.233333 h 4.233333 V 50.8 Z m -38.1,4.233333 v 4.233334 h 4.233333 v -4.233334 z"
         inkscape:label="mid grey" /><path
         id="rect37"
         style="display:inline;fill:#7d7d7d;fill-opacity:1;stroke:none;stroke-width:0.176389;stroke-linecap:square;stroke-miterlimit:9.9;paint-order:fill markers stroke"
         d="m 21.166667,16.933333 v 4.233334 h 12.7 v -4.233334 z m 16.933333,0 v 4.233334 h 4.233333 v -4.233334 z m 8.466667,0 v 4.233334 h 8.466666 V 16.933333 Z M 8.4666667,46.566667 V 50.8 H 12.7 v -4.233333 z m 55.0333333,0 V 50.8 h 4.233333 V 46.566667 Z M 63.5,50.8 h -4.233333 v 4.233333 H 63.5 Z m -38.1,0 v 4.233333 h 4.233333 V 50.8 Z"
         inkscape:label="light grey" /><path
         id="rect53"
         style="fill:#ffffff;fill-opacity:1;stroke:none;stroke-width:0.176389;stroke-linecap:square;stroke-miterlimit:9.9;paint-order:fill markers stroke"
         d="M 25.4,33.866667 V 38.1 h -8.466667 v 4.233333 H 12.7 V 50.8 H 8.4666667 V 67.733333 H 12.7 v -12.7 h 4.233333 V 50.8 h 12.7 v 4.233333 H 50.8 V 50.8 H 59.266667 63.5 V 42.333333 H 59.266667 V 38.1 H 55.033333 V 33.866667 H 50.8 33.866667 Z M 63.5,50.8 v 16.933333 h 4.233333 V 50.8 Z m 0,16.933333 h -4.233333 v 4.233334 H 63.5 Z m -50.8,0 v 4.233334 h 4.233333 v -4.233334 z"
         inkscape:label="moustache" /><path
         id="rect48"
         style="display:inline;fill:#ffcbb7;fill-opacity:1;stroke:none;stroke-width:0.176389;stroke-linecap:square;stroke-miterlimit:9.9;paint-order:fill markers stroke"
         d="M 38.1,33.866667 V 38.1 H 29.633333 V 50.8 H 50.8 V 38.1 h -8.466667 v -4.233333 z"
         inkscape:label="pink" /><path
         id="rect43"
         style="display:inline;fill:#7c5446;fill-opacity:1;stroke:none;stroke-width:0.176389;stroke-linecap:square;stroke-miterlimit:9.9;paint-order:fill markers stroke"
         d="m 25.4,25.4 v 4.233333 h 4.233333 V 25.4 Z m 12.7,0 v 4.233333 h 4.233333 V 25.4 Z m 12.7,0 v 4.233333 h 4.233333 V 25.4 Z M 33.866667,42.333333 v 4.233334 h 12.7 v -4.233334 z m 12.7,4.233334 V 50.8 H 50.8 v -4.233333 z m -12.7,0 H 29.633333 V 50.8 h 4.233334 z"
         inkscape:label="dark brown" /><path
         id="rect49"
         style="display:inline;fill:#a67a69;fill-opacity:1;stroke:none;stroke-width:0.176389;stroke-linecap:square;stroke-miterlimit:9.9;paint-order:fill markers stroke"
         d="M 33.866667,33.866667 V 38.1 H 38.1 v -4.233333 z m 8.466666,0 V 38.1 h 4.233334 v -4.233333 z"
         inkscape:label="medium brown" /><path
         id="rect50"
         style="display:inline;fill:#c08735;fill-opacity:1;stroke:none;stroke-width:0.176389;stroke-linecap:square;stroke-miterlimit:9.9;paint-order:fill markers stroke"
         d="m 25.4,29.633333 v 4.233334 h 4.233333 v -4.233334 z m 12.7,0 v 4.233334 h 4.233333 v -4.233334 z m 12.7,0 v 4.233334 h 4.233333 v -4.233334 z"
         inkscape:label="side light" /><path
         id="rect52"
         style="display:inline;fill:#d9d9d9;fill-opacity:1;stroke:none;stroke-width:0.176389;stroke-linecap:square;stroke-miterlimit:9.9;paint-order:fill markers stroke"
         d="m 29.633333,25.4 v 4.233333 h 4.233334 V 25.4 Z m 12.7,0 v 4.233333 h 4.233334 V 25.4 Z"
         inkscape:label="eye highlight" /></g><path
       id="path99"
       style="fill:none;fill-opacity:1;stroke:#000000;stroke-width:0.264583;stroke-linecap:square;stroke-miterlimit:9.9;stroke-dasharray:none;stroke-opacity:1;paint-order:fill markers stroke"
       d="M 71.966671,55.033337 H 4.2333336 M 71.966671,59.266671 H 4.2333336 M 71.966671,8.4666672 H 4.2333336 M 71.966671,12.700001 H 4.2333336 M 71.966671,16.933335 H 4.2333336 M 71.966671,21.166668 H 4.2333336 M 71.966671,25.400002 H 4.2333336 M 71.966671,29.633335 H 4.2333336 M 71.966671,33.866669 H 4.2333336 M 71.966671,38.100003 H 4.2333336 M 71.966671,42.333336 H 4.2333336 M 71.966671,46.56667 H 4.2333336 M 71.966671,50.800004 H 4.2333336 M 71.966671,63.500005 H 4.2333336 M 71.966671,67.733338 H 4.2333336 M 71.966671,4.2333336 H 4.2333335 M 71.966671,71.966672 H 4.2333336 m -3e-7,-67.7333387 V 71.966667 Z m 4.2333334,0 V 71.966667 Z m 4.2333333,0 V 71.966667 Z m 4.233333,0 V 71.966667 Z m 4.233334,0 V 71.966667 Z m 4.233333,0 V 71.966667 Z m 4.233333,0 V 71.966667 Z m 4.233334,0 V 71.966667 Z m 4.233333,0 V 71.966667 Z m 4.233333,0 V 71.966667 Z m 4.233334,0 V 71.966667 Z m 4.233333,0 V 71.966667 Z m 4.233333,0 V 71.966667 Z m 4.233334,0 V 71.966667 Z m 4.233333,0 V 71.966667 Z m 4.233333,0 V 71.966667 Z m 4.233334,0 V 71.966667 Z"
       inkscape:label="grid" /></g><metadata
     id="metadata99"><rdf:RDF><cc:Work
         rdf:about=""><dc:title>Tamarin logo - vector graphics</dc:title><dc:date>07.03.2025</dc:date><dc:creator><cc:Agent><dc:title>Cas Cremers</dc:title></cc:Agent></dc:creator><dc:publisher><cc:Agent><dc:title>The Tamarin Team</dc:title></cc:Agent></dc:publisher><dc:subject><rdf:Bag><rdf:li>Tamarin Prover</rdf:li></rdf:Bag></dc:subject><cc:license
           rdf:resource="http://creativecommons.org/licenses/by/4.0/" /></cc:Work><cc:License
         rdf:about="http://creativecommons.org/licenses/by/4.0/"><cc:permits
           rdf:resource="http://creativecommons.org/ns#Reproduction" /><cc:permits
           rdf:resource="http://creativecommons.org/ns#Distribution" /><cc:requires
           rdf:resource="http://creativecommons.org/ns#Notice" /><cc:requires
           rdf:resource="http://creativecommons.org/ns#Attribution" /><cc:permits
           rdf:resource="http://creativecommons.org/ns#DerivativeWorks" /></cc:License></rdf:RDF></metadata></svg>
